<svg xmlns="http://www.w3.org/2000/svg" xmlns:xlink="http://www.w3.org/1999/xlink" width="500" zoomAndPan="magnify" viewBox="0 0 375 374.999991" height="500" preserveAspectRatio="xMidYMid meet" version="1.0"><defs><g/><clipPath id="272e42c7fc"><path d="M 65.265625 85.128906 L 309 85.128906 L 309 289.878906 L 65.265625 289.878906 Z M 65.265625 85.128906 " clip-rule="nonzero"/></clipPath></defs><g clip-path="url(#272e42c7fc)"><path fill="#000000" d="M 78.589844 218.8125 C 78.589844 218.8125 78.457031 218.679688 78.457031 218.679688 C 78.457031 218.679688 78.324219 218.679688 78.324219 218.679688 C 74.992188 220.144531 70.863281 220.410156 67.929688 217.878906 C 65.664062 216.015625 65.265625 212.816406 66.464844 210.285156 C 68.0625 207.222656 71.929688 205.757812 75.125 205.355469 C 75.257812 205.355469 75.390625 205.222656 75.390625 205.089844 C 74.992188 201.226562 78.324219 198.5625 81.921875 198.027344 C 82.320312 197.894531 82.855469 197.761719 83.253906 197.761719 C 83.386719 197.761719 83.386719 197.628906 83.519531 197.496094 C 83.519531 196.964844 83.519531 196.5625 83.519531 196.164062 C 84.1875 186.972656 94.710938 185.105469 101.507812 188.304688 C 101.640625 188.304688 101.640625 188.304688 101.640625 188.304688 C 101.773438 188.304688 101.773438 188.304688 101.773438 188.171875 C 103.238281 185.773438 105.238281 184.039062 108.035156 183.105469 C 112.699219 181.507812 118.429688 182.707031 120.695312 187.371094 C 120.828125 187.503906 120.828125 187.503906 120.960938 187.503906 C 121.09375 187.503906 121.628906 187.371094 122.425781 187.105469 C 125.09375 186.570312 129.222656 186.835938 131.355469 188.835938 C 131.753906 189.234375 132.019531 189.503906 132.152344 189.503906 C 132.285156 189.636719 132.285156 189.636719 132.285156 189.636719 C 132.421875 189.636719 132.421875 189.636719 132.421875 189.636719 C 135.351562 187.769531 138.417969 187.371094 141.878906 188.304688 C 143.746094 188.835938 145.609375 190.035156 146.277344 191.765625 C 146.945312 193.5 146.675781 195.097656 145.34375 196.695312 C 145.34375 196.695312 145.34375 196.695312 145.476562 196.832031 C 147.609375 197.097656 150.675781 198.429688 150.675781 201.09375 C 150.675781 202.160156 150.273438 202.957031 149.742188 203.757812 C 147.476562 206.6875 144.011719 207.355469 140.546875 206.824219 C 140.414062 206.6875 140.28125 206.824219 140.28125 206.957031 C 139.882812 209.621094 140.546875 212.550781 143.210938 213.882812 C 147.476562 216.148438 152.40625 216.28125 156.9375 215.082031 C 157.070312 215.082031 157.203125 214.949219 157.203125 214.949219 C 157.203125 214.949219 157.203125 214.949219 157.203125 214.816406 C 156.9375 212.417969 156.9375 210.285156 157.070312 208.554688 C 157.871094 200.425781 161.867188 194.433594 169.0625 190.835938 C 170.128906 190.300781 171.195312 189.769531 172.257812 189.503906 C 172.394531 189.503906 172.394531 189.371094 172.394531 189.234375 C 171.59375 185.371094 168.929688 184.171875 165.199219 184.039062 C 160.667969 183.773438 156.804688 184.304688 152.140625 185.105469 C 146.144531 186.171875 139.617188 185.773438 135.882812 180.175781 C 135.882812 180.042969 135.75 180.042969 135.617188 180.042969 C 133.085938 180.441406 130.289062 180.042969 128.15625 178.445312 C 128.15625 178.445312 128.023438 178.445312 128.023438 178.445312 C 124.691406 180.710938 118.5625 180.574219 116.296875 176.84375 C 116.296875 176.710938 116.164062 176.710938 116.164062 176.710938 C 116.164062 176.710938 116.03125 176.710938 116.03125 176.710938 C 114.832031 177.246094 113.234375 177.378906 111.234375 177.246094 C 106.703125 176.84375 102.574219 174.3125 103.640625 169.117188 C 104.039062 166.988281 105.90625 165.253906 107.769531 164.320312 C 109.769531 163.257812 111.902344 162.855469 114.164062 163.121094 C 114.300781 163.121094 114.433594 162.988281 114.433594 162.988281 C 114.832031 161.125 115.5 159.660156 116.5625 158.460938 C 120.160156 154.0625 128.023438 153.53125 131.621094 158.328125 C 131.753906 158.328125 131.753906 158.328125 131.886719 158.328125 C 134.417969 156.59375 137.21875 156.195312 140.28125 156.859375 C 142.148438 157.394531 143.480469 158.328125 144.277344 159.792969 C 144.277344 159.925781 144.410156 159.925781 144.546875 159.925781 C 145.746094 159.792969 146.945312 159.792969 148.410156 159.925781 C 148.542969 159.925781 148.542969 159.925781 148.675781 159.792969 C 150.941406 156.328125 155.738281 156.0625 159.203125 157.660156 C 160.402344 158.191406 161.332031 159.125 162.132812 160.457031 C 162.132812 160.589844 162.265625 160.589844 162.265625 160.589844 C 165.066406 160.058594 167.597656 160.324219 169.726562 161.390625 C 171.058594 162.058594 171.859375 163.257812 172.125 164.855469 C 172.125 164.988281 172.257812 165.121094 172.257812 165.121094 C 173.859375 165.253906 175.324219 165.789062 176.390625 166.585938 C 178.523438 168.183594 178.65625 171.382812 175.855469 172.449219 C 175.722656 172.449219 175.589844 172.582031 175.589844 172.714844 C 175.324219 173.382812 175.058594 174.046875 174.65625 174.3125 C 172.660156 176.578125 168.929688 176.980469 166.128906 176.046875 C 164.929688 175.644531 164.132812 174.980469 163.597656 174.046875 C 163.597656 174.046875 163.464844 174.046875 163.464844 174.046875 C 163.464844 174.046875 163.464844 174.046875 163.332031 174.046875 C 162.933594 174.714844 162.265625 175.113281 161.734375 175.511719 C 161.601562 175.511719 161.601562 175.644531 161.601562 175.78125 C 162.265625 177.246094 163.730469 179.242188 165.464844 179.511719 C 171.195312 180.175781 177.054688 182.308594 180.121094 187.636719 C 180.253906 187.769531 180.386719 187.769531 180.519531 187.769531 C 184.785156 187.105469 188.648438 185.503906 190.78125 181.375 C 191.578125 179.644531 192.246094 177.378906 191.714844 175.511719 C 191.179688 173.382812 189.980469 171.648438 188.515625 170.050781 C 186.917969 168.183594 185.582031 166.71875 184.917969 165.789062 C 183.320312 163.789062 182.253906 161.65625 181.054688 159.390625 C 181.054688 159.257812 180.921875 159.125 180.921875 159.125 C 179.1875 157.527344 177.589844 156.460938 176.125 155.929688 C 174.125 155.261719 172.257812 154.996094 170.261719 154.996094 C 168.527344 154.996094 167.0625 154.996094 165.996094 154.996094 C 162.398438 154.730469 159.203125 153.53125 156.535156 151.132812 C 156.402344 151 156.402344 151 156.402344 151 C 156.269531 151 156.269531 151 156.269531 151.132812 C 153.074219 153.128906 148.675781 152.863281 145.878906 150.199219 C 145.746094 150.199219 145.609375 150.199219 145.609375 150.199219 C 143.078125 151.929688 140.148438 152.597656 137.082031 152.066406 C 134.152344 151.53125 132.152344 149.933594 131.222656 147.269531 C 131.222656 147.136719 131.085938 147.136719 130.953125 147.136719 C 130.820312 147.136719 130.15625 147.269531 129.222656 147.402344 C 125.226562 148.066406 119.230469 147 119.761719 141.539062 C 120.027344 138.207031 123.359375 136.34375 126.289062 135.808594 C 126.425781 135.808594 126.558594 135.808594 126.558594 135.675781 C 126.957031 133.414062 128.957031 131.945312 131.085938 131.28125 C 132.820312 130.746094 134.550781 130.746094 136.417969 131.015625 C 136.417969 131.015625 136.550781 131.015625 136.550781 130.878906 C 136.816406 128.214844 137.882812 126.21875 139.75 124.753906 C 142.414062 122.886719 145.34375 122.222656 148.675781 123.019531 C 151.207031 123.554688 153.207031 124.886719 154.40625 127.015625 C 154.539062 127.015625 154.539062 127.148438 154.671875 127.148438 C 154.671875 127.148438 154.671875 127.148438 154.671875 127.015625 C 158.402344 125.152344 163.199219 125.285156 165.597656 129.015625 C 165.730469 129.015625 165.730469 129.148438 165.863281 129.015625 C 168.664062 128.484375 171.859375 128.617188 174.257812 130.082031 C 176.257812 131.28125 177.054688 133.011719 176.789062 135.542969 C 176.789062 135.542969 176.921875 135.675781 176.921875 135.675781 C 177.191406 135.675781 177.722656 135.808594 178.390625 135.945312 C 180.789062 136.34375 183.453125 137.808594 183.050781 140.605469 C 182.652344 143.40625 179.453125 144.871094 176.921875 144.46875 C 176.789062 144.46875 176.65625 144.46875 176.65625 144.605469 C 174.257812 146.601562 171.058594 146.601562 168.394531 145.402344 C 168.394531 145.402344 168.394531 145.402344 168.261719 145.402344 C 168.261719 145.402344 168.128906 145.402344 168.128906 145.535156 C 168.261719 148.066406 169.328125 149.800781 171.460938 150.730469 C 171.859375 151 172.527344 151.132812 173.59375 151.265625 C 176.257812 151.53125 178.789062 152.199219 181.1875 153.53125 C 181.1875 153.53125 181.320312 153.53125 181.320312 153.53125 C 181.320312 153.53125 181.453125 153.53125 181.453125 153.53125 C 181.988281 150.464844 183.320312 147.933594 185.316406 145.667969 C 185.851562 145.136719 186.382812 144.605469 187.183594 143.804688 C 187.316406 143.539062 187.582031 143.269531 187.582031 143.003906 C 188.515625 140.207031 188.25 137.808594 186.78125 135.675781 C 185.984375 134.476562 184.117188 132.746094 183.453125 131.945312 C 181.320312 129.683594 180.253906 127.148438 179.988281 124.351562 C 179.988281 124.21875 179.855469 124.085938 179.722656 124.085938 C 178.921875 123.820312 177.722656 123.6875 176.921875 123.285156 C 175.058594 122.488281 173.59375 121.289062 172.394531 119.554688 C 172.394531 119.421875 172.257812 119.289062 172.125 119.289062 C 171.328125 119.289062 170.527344 119.023438 169.726562 118.625 C 169.59375 118.492188 169.460938 118.625 169.328125 118.625 C 166.929688 121.6875 162.53125 122.886719 158.667969 122.222656 C 155.738281 121.820312 153.738281 120.355469 152.539062 117.957031 C 152.539062 117.824219 152.40625 117.824219 152.273438 117.824219 C 148.007812 118.089844 143.613281 117.023438 142.28125 112.761719 C 140.28125 106.5 145.34375 102.503906 151.074219 102.636719 C 151.207031 102.636719 151.207031 102.503906 151.339844 102.503906 C 152.273438 98.503906 156.003906 97.171875 159.734375 97.441406 C 159.867188 97.441406 159.867188 97.441406 160 97.304688 C 161.46875 94.375 164.265625 93.84375 167.328125 93.976562 C 167.464844 93.976562 167.464844 93.976562 167.597656 93.84375 C 169.0625 87.582031 176.65625 85.847656 181.851562 88.378906 C 182.253906 88.648438 182.785156 88.914062 183.320312 89.046875 C 183.320312 89.179688 183.453125 89.179688 183.453125 89.046875 C 185.183594 86.78125 188.25 85.714844 191.046875 85.714844 C 196.109375 85.714844 199.707031 87.847656 201.839844 92.378906 C 201.972656 92.511719 202.105469 92.644531 202.105469 92.511719 C 202.640625 92.511719 203.304688 92.242188 203.570312 92.242188 C 207.703125 91.578125 212.097656 92.242188 215.296875 95.175781 C 216.628906 96.375 217.296875 97.972656 217.695312 100.238281 C 217.695312 100.371094 217.828125 100.371094 217.828125 100.371094 C 218.226562 100.371094 218.761719 100.371094 219.292969 100.371094 C 224.890625 100.238281 231.285156 103.570312 228.886719 110.363281 C 228.886719 110.496094 228.886719 110.496094 228.886719 110.496094 C 228.886719 110.496094 228.886719 110.496094 229.019531 110.496094 C 232.617188 110.496094 237.949219 112.363281 236.882812 117.023438 C 236.882812 117.15625 236.882812 117.292969 237.015625 117.292969 C 238.347656 117.425781 239.546875 117.558594 240.613281 117.957031 C 243.8125 118.757812 247.941406 121.421875 246.210938 125.417969 C 245.277344 127.550781 243.011719 128.484375 240.746094 128.882812 C 239.945312 129.015625 239.414062 129.148438 239.28125 129.148438 C 239.015625 129.148438 238.882812 129.148438 238.882812 129.28125 C 238.613281 129.546875 238.214844 130.082031 238.082031 130.214844 C 235.285156 132.613281 231.285156 132.746094 227.953125 131.945312 C 227.820312 131.8125 227.820312 131.945312 227.820312 131.945312 C 226.621094 134.210938 224.757812 135.675781 222.09375 136.34375 C 218.894531 137.144531 214.898438 136.609375 212.097656 134.746094 C 212.097656 134.746094 211.964844 134.746094 211.964844 134.746094 C 210.101562 136.875 207.96875 138.609375 205.039062 138.875 C 205.039062 138.875 204.902344 138.875 204.902344 139.007812 C 204.105469 140.472656 201.441406 141.9375 199.839844 142.605469 C 195.578125 144.46875 191.445312 146.203125 189.179688 150.332031 C 187.714844 152.863281 187.582031 156.460938 189.449219 158.859375 C 189.980469 159.660156 190.914062 160.324219 191.980469 161.257812 C 195.976562 164.453125 198.242188 166.320312 200.640625 169.652344 C 200.640625 169.785156 200.773438 169.785156 200.773438 169.785156 C 203.972656 168.453125 207.167969 167.917969 210.632812 168.050781 C 214.097656 168.183594 215.695312 168.320312 215.695312 168.320312 C 219.292969 168.585938 222.890625 167.253906 224.890625 164.453125 C 224.890625 164.320312 224.890625 164.320312 224.890625 164.320312 C 224.890625 164.1875 224.890625 164.1875 224.757812 164.1875 C 222.492188 164.054688 221.027344 163.121094 220.359375 160.992188 C 220.226562 160.859375 220.09375 160.859375 219.960938 160.859375 C 218.363281 160.859375 217.027344 160.589844 215.964844 160.324219 C 215.828125 160.324219 215.828125 160.324219 215.828125 160.457031 C 215.03125 164.722656 209.835938 164.320312 206.902344 162.988281 C 205.304688 162.324219 204.503906 161.125 204.371094 159.390625 C 204.238281 159.125 204.238281 158.859375 204.238281 158.726562 C 204.238281 158.59375 204.105469 158.59375 204.105469 158.59375 C 202.371094 158.460938 200.242188 157.925781 199.175781 156.328125 C 198.375 154.996094 198.90625 152.996094 199.839844 152.066406 C 201.039062 150.597656 202.773438 149.800781 205.039062 149.667969 C 205.171875 149.667969 205.304688 149.667969 205.304688 149.53125 C 206.769531 147.535156 209.300781 146.601562 211.832031 146.46875 C 211.964844 146.46875 211.964844 146.46875 212.097656 146.335938 C 212.765625 145.402344 213.296875 144.871094 213.566406 144.738281 C 215.429688 143.40625 217.695312 142.738281 219.960938 143.003906 C 220.761719 143.136719 221.292969 143.136719 221.292969 143.136719 C 221.425781 143.136719 221.558594 143.136719 221.558594 143.003906 C 223.292969 140.074219 227.023438 139.007812 230.21875 138.742188 C 232.617188 138.609375 234.882812 139.007812 236.882812 139.941406 C 237.015625 139.941406 237.015625 139.941406 237.015625 139.941406 C 237.148438 139.941406 237.148438 139.941406 237.148438 139.941406 C 238.613281 137.675781 240.214844 136.34375 242.34375 135.675781 C 245.941406 134.476562 249.273438 134.746094 252.339844 136.476562 C 253.269531 137.007812 254.203125 138.074219 254.871094 139.40625 C 254.871094 139.40625 255.003906 139.539062 255.003906 139.539062 C 255.003906 139.539062 255.003906 139.539062 255.136719 139.539062 C 258.867188 138.476562 264.0625 139.007812 265.796875 143.136719 C 265.796875 143.136719 265.929688 143.269531 265.929688 143.269531 C 269.925781 142.738281 274.324219 143.804688 276.1875 147.667969 C 276.1875 147.800781 276.320312 147.933594 276.457031 147.933594 C 278.855469 148.066406 281.652344 149.132812 282.71875 151.53125 C 283.515625 153.398438 282.585938 155.527344 280.984375 156.726562 C 278.71875 158.191406 276.457031 158.460938 273.65625 158.59375 C 273.523438 158.59375 273.390625 158.726562 273.390625 158.726562 C 272.324219 163.390625 266.195312 164.1875 262.464844 163.257812 C 260.734375 162.855469 259.132812 162.058594 257.800781 160.722656 C 257.800781 160.722656 257.667969 160.722656 257.667969 160.722656 C 255.402344 164.1875 251.273438 165.519531 247.410156 164.320312 C 247.273438 164.320312 247.273438 164.320312 247.140625 164.453125 C 242.878906 169.117188 237.015625 169.785156 230.886719 169.917969 C 230.351562 169.917969 229.953125 170.050781 229.554688 170.183594 C 225.691406 172.050781 221.691406 172.847656 217.296875 172.449219 C 212.765625 172.183594 207.4375 171.382812 203.4375 174.046875 C 203.171875 174.3125 202.90625 174.582031 202.773438 174.847656 C 202.640625 174.847656 202.640625 174.980469 202.640625 175.113281 C 203.304688 181.109375 202.238281 186.570312 198.773438 191.5 C 198.773438 191.632812 198.773438 191.632812 198.773438 191.632812 C 198.773438 191.765625 198.90625 191.765625 198.90625 191.902344 C 203.839844 193.101562 207.96875 194.566406 215.296875 197.230469 C 220.09375 198.960938 224.625 200.160156 229.6875 199.496094 C 233.152344 198.960938 235.550781 197.097656 237.015625 194.03125 C 237.015625 194.03125 237.015625 194.03125 237.015625 193.898438 C 233.019531 194.433594 229.152344 194.164062 226.753906 190.433594 C 226.753906 190.433594 226.621094 190.300781 226.621094 190.300781 C 226.621094 190.300781 226.488281 190.300781 226.488281 190.433594 C 224.359375 191.765625 222.09375 192.433594 219.5625 192.433594 C 217.164062 192.300781 213.832031 191.5 213.164062 188.835938 C 212.5 185.640625 215.5625 183.640625 218.226562 183.242188 C 218.628906 183.105469 218.894531 183.105469 219.160156 182.972656 C 219.292969 182.972656 219.292969 182.839844 219.292969 182.839844 C 219.5625 180.441406 220.761719 178.84375 223.023438 177.777344 C 225.691406 176.710938 229.289062 176.578125 231.550781 178.710938 C 231.6875 178.84375 231.820312 178.84375 231.820312 178.710938 C 234.484375 177.644531 238.214844 178.042969 239.945312 180.441406 C 240.082031 180.441406 240.082031 180.441406 240.214844 180.441406 L 243.675781 180.574219 C 243.675781 180.574219 243.675781 180.441406 243.675781 180.441406 C 241.8125 174.046875 246.875 170.316406 252.605469 169.652344 C 256.734375 169.25 260.734375 169.917969 263.929688 172.714844 C 263.929688 172.714844 264.0625 172.714844 264.0625 172.714844 C 264.0625 172.714844 264.195312 172.714844 264.195312 172.714844 C 265.664062 170.183594 267.929688 168.851562 270.992188 168.585938 C 275.390625 168.320312 280.054688 169.785156 282.585938 173.648438 C 282.585938 173.648438 282.71875 173.78125 282.71875 173.648438 C 284.183594 172.980469 285.648438 172.449219 287.246094 172.316406 C 292.84375 171.648438 300.839844 173.648438 301.503906 180.441406 C 301.636719 180.574219 301.636719 180.574219 301.769531 180.710938 C 306.703125 181.242188 309.765625 184.441406 308.566406 189.636719 C 307.101562 195.230469 300.039062 196.164062 295.507812 195.097656 C 294.84375 194.964844 294.175781 194.566406 293.511719 194.433594 C 293.378906 194.296875 293.242188 194.433594 293.109375 194.433594 C 291.246094 195.230469 289.246094 195.632812 287.246094 195.496094 C 286.582031 195.363281 286.046875 195.363281 285.78125 195.363281 C 285.78125 195.363281 285.648438 195.363281 285.515625 195.496094 C 284.183594 197.363281 282.183594 198.429688 279.652344 199.09375 C 277.253906 199.628906 274.988281 199.761719 272.859375 199.628906 C 272.722656 199.628906 272.589844 199.628906 272.589844 199.761719 C 271.925781 200.425781 271.660156 200.828125 271.523438 200.960938 C 268.59375 204.023438 264.730469 204.558594 260.597656 204.15625 C 258.46875 203.890625 256.203125 203.625 253.804688 203.226562 C 253.539062 203.226562 253.136719 203.226562 252.871094 203.359375 C 249.40625 204.957031 245.675781 205.488281 241.8125 204.824219 C 239.945312 204.558594 237.414062 204.15625 234.351562 203.625 C 233.683594 203.492188 232.886719 203.492188 231.953125 203.492188 C 231.820312 203.492188 231.550781 203.492188 231.417969 203.625 C 229.152344 204.292969 227.15625 204.691406 225.421875 204.691406 C 221.558594 204.558594 217.695312 204.023438 213.566406 202.957031 C 211.433594 202.425781 207.4375 201.492188 201.574219 200.027344 C 196.644531 198.695312 191.445312 198.5625 186.117188 199.628906 C 181.585938 200.5625 176.921875 202.425781 175.058594 206.6875 C 174.125 208.554688 173.859375 210.554688 174.257812 212.285156 C 175.058594 215.617188 178.253906 217.480469 181.453125 218.414062 C 186.25 219.878906 191.445312 220.945312 195.976562 223.476562 C 201.304688 226.40625 204.636719 231.738281 206.902344 237.464844 C 208.367188 240.796875 209.167969 242.792969 209.433594 243.328125 C 210.101562 244.925781 211.167969 246.792969 212.632812 248.789062 C 214.628906 251.722656 218.226562 254.519531 221.824219 254.519531 C 225.023438 254.519531 227.554688 254.652344 229.953125 255.71875 C 232.617188 256.917969 234.882812 258.382812 237.015625 260.113281 C 237.148438 260.25 237.28125 260.25 237.414062 260.25 C 246.074219 260.25 253.269531 260.382812 258.867188 260.382812 C 260.464844 260.382812 261.796875 261.714844 261.132812 263.3125 C 260.464844 265.3125 258.867188 265.445312 257.269531 266.109375 C 255.667969 266.777344 254.871094 268.109375 254.605469 269.972656 C 253.539062 275.703125 251.007812 281.03125 246.074219 284.363281 C 244.609375 285.296875 243.011719 285.828125 241.144531 286.09375 C 241.011719 286.09375 240.746094 286.226562 240.746094 286.496094 C 240.746094 287.425781 240.480469 288.226562 239.8125 288.757812 C 239.546875 289.027344 238.746094 289.160156 237.414062 289.160156 C 224.625 289.160156 217.828125 289.160156 217.027344 289.160156 C 215.296875 289.160156 214.898438 287.695312 214.898438 286.226562 C 214.898438 286.09375 214.765625 285.960938 214.628906 285.960938 L 159.867188 285.960938 C 159.734375 285.960938 159.601562 286.09375 159.601562 286.226562 C 159.601562 286.894531 159.46875 287.558594 159.203125 288.09375 C 158.535156 289.292969 157.734375 289.160156 156.269531 289.160156 C 144.546875 289.160156 137.882812 289.160156 136.285156 289.160156 C 134.550781 289.160156 133.753906 288.226562 133.753906 286.496094 C 133.753906 286.363281 133.621094 286.09375 133.484375 286.09375 C 126.023438 285.164062 121.628906 277.96875 120.160156 271.304688 C 119.761719 269.042969 119.496094 267.308594 117.230469 266.242188 C 116.296875 265.710938 114.832031 265.578125 113.898438 264.246094 C 112.433594 262.511719 113.367188 260.25 115.765625 260.25 C 127.488281 260.25 134.820312 260.25 137.484375 260.25 C 137.75 260.25 138.015625 260.25 138.28125 260.113281 C 140.414062 258.914062 142.546875 258.117188 144.277344 257.582031 C 145.078125 257.316406 147.210938 256.785156 150.542969 256.117188 C 153.871094 255.585938 156.804688 254.253906 159.335938 252.253906 C 159.335938 252.253906 160.402344 251.320312 162.667969 249.589844 C 165.730469 247.058594 169.59375 246.523438 173.324219 245.726562 C 175.722656 245.058594 178.65625 243.726562 179.1875 241.0625 C 179.722656 238.796875 177.855469 237.597656 175.992188 236.800781 C 173.992188 235.867188 171.992188 234.933594 170.261719 234.136719 C 165.332031 231.46875 161.46875 227.605469 159.203125 222.410156 C 159.203125 222.410156 159.203125 222.277344 159.070312 222.277344 C 159.070312 222.277344 159.070312 222.277344 158.933594 222.277344 C 154.539062 223.34375 149.34375 223.476562 145.078125 221.609375 C 143.347656 220.945312 141.878906 219.746094 140.015625 218.546875 C 138.015625 217.347656 136.152344 216.816406 133.621094 216.816406 C 130.289062 216.679688 126.425781 217.214844 123.757812 218.679688 C 120.5625 220.679688 119.097656 221.609375 116.164062 222.542969 C 112.035156 224.007812 107.238281 223.34375 103.507812 221.34375 C 102.308594 220.679688 100.839844 219.613281 99.375 218.414062 C 99.375 218.414062 99.375 218.414062 99.242188 218.414062 C 97.777344 220.679688 95.644531 222.277344 93.113281 223.210938 C 88.050781 225.074219 80.855469 224.808594 78.589844 218.8125 Z M 174.523438 119.15625 C 175.992188 120.753906 177.988281 121.421875 180.121094 121.820312 C 180.253906 121.820312 180.253906 121.6875 180.253906 121.6875 C 181.054688 119.15625 182.121094 116.890625 183.585938 114.761719 C 183.585938 114.761719 183.585938 114.625 183.585938 114.492188 L 181.320312 113.292969 C 181.320312 113.292969 181.1875 113.292969 181.1875 113.425781 C 180.121094 116.492188 177.855469 118.355469 174.523438 119.023438 C 174.523438 119.023438 174.523438 119.023438 174.523438 119.15625 Z M 189.179688 115.292969 C 188.117188 115.558594 186.917969 115.558594 185.582031 115.425781 C 185.582031 115.425781 185.449219 115.425781 185.316406 115.558594 C 183.71875 118.492188 182.519531 121.15625 182.785156 124.484375 C 182.917969 126.21875 183.585938 127.683594 184.917969 128.882812 C 185.050781 128.882812 185.050781 128.882812 185.050781 128.75 C 186.117188 126.617188 187.847656 125.417969 190.246094 125.152344 C 190.378906 125.152344 190.515625 125.152344 190.515625 125.019531 C 190.78125 124.21875 191.179688 123.6875 191.578125 123.152344 C 191.578125 123.152344 191.714844 123.019531 191.714844 123.019531 C 191.714844 122.886719 191.578125 122.886719 191.578125 122.753906 C 189.179688 120.886719 188.382812 118.492188 189.316406 115.425781 C 189.316406 115.292969 189.316406 115.292969 189.179688 115.292969 Z M 191.980469 141.40625 C 193.578125 140.738281 195.3125 140.207031 197.175781 139.539062 C 199.308594 138.875 201.039062 137.941406 202.238281 136.875 C 203.570312 135.808594 204.105469 134.210938 204.105469 132.078125 C 204.105469 132.078125 203.972656 131.945312 203.839844 131.945312 L 201.574219 131.945312 C 201.574219 131.945312 201.441406 131.945312 201.441406 131.945312 C 199.042969 132.746094 196.777344 132.613281 194.511719 131.8125 C 192.246094 130.878906 190.78125 129.28125 190.246094 127.015625 C 190.246094 126.882812 190.246094 126.882812 190.113281 126.882812 C 188.25 127.148438 187.183594 128.214844 186.648438 130.082031 C 186.648438 130.214844 186.648438 130.347656 186.648438 130.347656 C 186.917969 130.613281 187.582031 131.414062 188.78125 132.746094 C 191.179688 135.144531 191.714844 137.808594 191.847656 141.273438 C 191.847656 141.40625 191.847656 141.40625 191.980469 141.40625 Z M 206.636719 136.34375 C 208.101562 135.945312 209.433594 135.011719 210.5 133.679688 C 210.5 133.546875 210.5 133.414062 210.5 133.277344 C 209.699219 132.480469 209.167969 131.414062 208.769531 130.347656 C 208.769531 130.347656 208.636719 130.347656 208.636719 130.347656 L 206.503906 131.148438 C 206.503906 131.28125 206.503906 131.28125 206.503906 131.28125 C 207.035156 133.011719 207.035156 134.609375 206.503906 136.34375 C 206.503906 136.34375 206.636719 136.34375 206.636719 136.34375 Z M 159.335938 146.734375 C 159.203125 147.667969 158.933594 148.335938 158.535156 149.132812 C 158.535156 149.265625 158.535156 149.398438 158.667969 149.53125 C 161.332031 151.796875 164.796875 152.199219 168.128906 151.664062 C 168.261719 151.664062 168.261719 151.664062 168.261719 151.53125 C 168.261719 151.53125 168.261719 151.53125 168.261719 151.398438 C 166.796875 149.667969 166.53125 147.800781 166.128906 145.535156 C 166.128906 145.402344 165.996094 145.269531 165.863281 145.269531 C 165.730469 145.269531 165.597656 145.402344 165.597656 145.402344 C 164 147.402344 162 147.800781 159.601562 146.601562 C 159.46875 146.601562 159.46875 146.601562 159.46875 146.601562 C 159.46875 146.601562 159.335938 146.601562 159.335938 146.734375 Z M 234.882812 166.320312 C 238.613281 166.453125 241.8125 165.519531 244.609375 163.257812 C 244.609375 163.257812 244.609375 163.121094 244.609375 163.121094 C 244.609375 163.121094 244.609375 162.988281 244.609375 162.988281 C 243.011719 161.789062 242.34375 160.191406 242.34375 158.191406 C 242.34375 158.191406 242.34375 158.191406 242.210938 158.191406 C 240.613281 159.527344 238.746094 160.457031 236.617188 160.859375 C 236.484375 160.859375 236.484375 160.992188 236.484375 160.992188 C 236.347656 162.722656 235.683594 164.453125 234.75 166.054688 C 234.75 166.1875 234.75 166.1875 234.75 166.1875 C 234.75 166.320312 234.75 166.320312 234.882812 166.320312 Z M 224.757812 167.917969 C 225.558594 167.652344 226.621094 167.386719 227.953125 166.851562 C 229.421875 166.1875 230.488281 165.652344 231.019531 165.253906 C 232.351562 164.320312 233.285156 162.855469 233.683594 161.125 C 233.683594 160.992188 233.683594 160.992188 233.550781 160.992188 C 231.550781 160.859375 229.6875 160.457031 228.089844 158.992188 C 227.953125 158.859375 227.953125 158.859375 227.820312 158.859375 L 227.023438 159.257812 C 226.890625 159.257812 226.890625 159.390625 226.890625 159.390625 C 226.890625 159.527344 226.890625 159.527344 226.890625 159.527344 C 228.621094 162.324219 226.753906 165.921875 224.757812 167.785156 C 224.757812 167.917969 224.757812 167.917969 224.757812 167.917969 Z M 161.332031 179.511719 C 160.800781 178.578125 160.269531 177.644531 159.867188 176.578125 C 159.867188 176.445312 159.734375 176.445312 159.601562 176.445312 C 157.871094 177.113281 156.402344 176.84375 154.9375 175.644531 C 154.804688 175.644531 154.671875 175.644531 154.671875 175.644531 C 154.003906 176.445312 153.472656 176.84375 152.941406 177.113281 C 152.941406 177.113281 152.804688 177.246094 152.804688 177.246094 C 152.804688 177.246094 152.941406 177.378906 152.941406 177.378906 C 153.871094 178.84375 155.203125 180.308594 157.070312 180.175781 C 158.269531 180.175781 159.734375 179.910156 161.332031 179.644531 C 161.332031 179.644531 161.332031 179.644531 161.332031 179.511719 Z M 152.804688 181.242188 C 152.007812 180.308594 151.207031 179.375 150.675781 178.179688 C 150.542969 178.042969 150.542969 178.042969 150.40625 178.042969 C 148.675781 178.179688 145.878906 177.378906 144.8125 175.914062 C 144.679688 175.914062 144.679688 175.78125 144.546875 175.78125 L 142.414062 175.78125 C 142.28125 175.78125 142.148438 175.914062 142.148438 175.914062 C 141.214844 177.246094 140.148438 178.179688 138.816406 178.84375 C 138.683594 178.84375 138.683594 178.84375 138.683594 178.84375 C 138.683594 178.84375 138.683594 178.976562 138.683594 178.976562 C 142.148438 182.972656 148.277344 182.574219 152.804688 181.375 C 152.804688 181.375 152.941406 181.375 152.941406 181.242188 C 152.941406 181.242188 152.941406 181.242188 152.804688 181.242188 Z M 236.75 199.761719 C 239.015625 200.425781 241.414062 200.960938 243.542969 201.226562 C 249.140625 202.160156 254.871094 199.363281 258.066406 194.832031 C 258.066406 194.832031 258.066406 194.699219 258.066406 194.699219 C 257.933594 194.699219 257.933594 194.699219 257.933594 194.699219 C 253.804688 195.097656 249.40625 194.566406 246.609375 191.234375 C 246.476562 191.234375 246.34375 191.234375 246.210938 191.234375 C 244.34375 191.902344 242.878906 191.765625 241.011719 191.632812 C 240.878906 191.632812 240.878906 191.765625 240.878906 191.765625 C 240.347656 194.832031 239.015625 197.496094 236.75 199.628906 C 236.75 199.628906 236.75 199.628906 236.75 199.761719 Z M 257.269531 200.695312 C 261.53125 201.359375 266.730469 202.558594 269.660156 199.363281 C 269.660156 199.363281 269.660156 199.226562 269.660156 199.226562 C 269.660156 199.09375 269.660156 199.09375 269.527344 198.960938 C 266.863281 198.429688 264.996094 196.832031 263.929688 194.296875 C 263.929688 194.296875 263.929688 194.164062 263.796875 194.164062 L 261.265625 194.566406 C 261.265625 194.566406 261.132812 194.699219 261.132812 194.699219 C 260.332031 196.832031 259 198.828125 257.269531 200.5625 C 257.269531 200.5625 257.136719 200.5625 257.136719 200.5625 C 257.136719 200.695312 257.269531 200.695312 257.269531 200.695312 Z M 135.085938 205.089844 C 134.953125 205.355469 134.820312 205.757812 134.550781 206.289062 C 134.417969 206.6875 133.886719 207.089844 133.753906 207.355469 C 133.753906 207.355469 133.753906 207.355469 133.753906 207.488281 L 137.351562 210.285156 C 137.484375 210.285156 137.484375 210.285156 137.484375 210.152344 C 137.484375 208.554688 137.484375 207.355469 137.75 206.421875 C 137.882812 206.15625 137.75 205.890625 137.484375 205.757812 L 135.484375 204.824219 C 135.21875 204.691406 135.085938 204.824219 135.085938 205.089844 Z M 134.953125 212.285156 L 131.085938 209.085938 C 130.953125 208.953125 130.820312 208.953125 130.820312 208.953125 C 128.289062 209.355469 124.957031 209.085938 123.09375 207.222656 C 122.960938 207.089844 122.828125 207.089844 122.695312 207.089844 L 120.429688 207.886719 C 120.296875 207.886719 120.296875 208.023438 120.296875 208.023438 C 120.296875 210.152344 119.496094 211.886719 117.898438 213.351562 C 117.761719 213.351562 117.761719 213.351562 117.761719 213.351562 C 117.761719 213.351562 117.761719 213.484375 117.898438 213.484375 C 118.296875 213.75 118.828125 214.015625 119.363281 214.148438 C 121.894531 214.683594 124.027344 214.417969 127.089844 213.617188 C 129.621094 213.085938 132.152344 212.683594 134.953125 212.417969 C 134.953125 212.417969 135.085938 212.417969 135.085938 212.417969 C 135.085938 212.285156 135.085938 212.285156 134.953125 212.285156 Z M 119.097656 217.082031 C 117.496094 216.679688 116.03125 215.882812 114.832031 214.949219 C 114.832031 214.816406 114.699219 214.816406 114.566406 214.816406 C 112.300781 215.347656 110.300781 215.082031 108.570312 213.75 C 108.4375 213.75 108.4375 213.75 108.4375 213.75 C 108.4375 213.75 108.304688 213.75 108.304688 213.75 C 106.972656 215.617188 105.238281 216.816406 102.972656 217.214844 C 102.839844 217.214844 102.839844 217.214844 102.839844 217.214844 C 102.839844 217.214844 102.839844 217.347656 102.839844 217.347656 C 106.703125 220.011719 111.632812 220.945312 115.898438 218.945312 C 117.097656 218.414062 118.164062 217.878906 119.097656 217.214844 C 119.230469 217.214844 119.230469 217.214844 119.230469 217.082031 C 119.230469 217.082031 119.097656 217.082031 119.097656 217.082031 Z M 119.097656 217.082031 " fill-opacity="1" fill-rule="evenodd"/></g><g fill="#000000" fill-opacity="1"><g transform="translate(177.215164, 274.690763)"><g><path d="M 5.734375 0.171875 C 5.085938 0.171875 4.53125 0.046875 4.0625 -0.203125 C 3.59375 -0.453125 3.21875 -0.78125 2.9375 -1.1875 L 2.78125 -1.15625 L 2.78125 0 L 1.5 0 L 1.5 -12.078125 L 2.78125 -12.078125 L 2.78125 -7.328125 L 2.9375 -7.296875 C 3.59375 -8.285156 4.546875 -8.78125 5.796875 -8.78125 C 6.503906 -8.78125 7.125 -8.613281 7.65625 -8.28125 C 8.1875 -7.957031 8.597656 -7.460938 8.890625 -6.796875 C 9.191406 -6.128906 9.34375 -5.300781 9.34375 -4.3125 C 9.34375 -3.332031 9.1875 -2.503906 8.875 -1.828125 C 8.5625 -1.160156 8.132812 -0.660156 7.59375 -0.328125 C 7.050781 0.00390625 6.429688 0.171875 5.734375 0.171875 Z M 5.421875 -0.984375 C 7.140625 -0.984375 8 -2.09375 8 -4.3125 C 8 -5.457031 7.773438 -6.296875 7.328125 -6.828125 C 6.878906 -7.367188 6.242188 -7.640625 5.421875 -7.640625 C 4.617188 -7.640625 3.976562 -7.363281 3.5 -6.8125 C 3.019531 -6.269531 2.78125 -5.4375 2.78125 -4.3125 C 2.78125 -3.1875 3.019531 -2.347656 3.5 -1.796875 C 3.976562 -1.253906 4.617188 -0.984375 5.421875 -0.984375 Z M 5.421875 -0.984375 "/></g></g></g><g fill="#000000" fill-opacity="1"><g transform="translate(187.493904, 274.690763)"><g><path d="M 5.734375 0.171875 C 5.085938 0.171875 4.53125 0.046875 4.0625 -0.203125 C 3.59375 -0.453125 3.21875 -0.78125 2.9375 -1.1875 L 2.78125 -1.15625 L 2.78125 0 L 1.5 0 L 1.5 -12.078125 L 2.78125 -12.078125 L 2.78125 -7.328125 L 2.9375 -7.296875 C 3.59375 -8.285156 4.546875 -8.78125 5.796875 -8.78125 C 6.503906 -8.78125 7.125 -8.613281 7.65625 -8.28125 C 8.1875 -7.957031 8.597656 -7.460938 8.890625 -6.796875 C 9.191406 -6.128906 9.34375 -5.300781 9.34375 -4.3125 C 9.34375 -3.332031 9.1875 -2.503906 8.875 -1.828125 C 8.5625 -1.160156 8.132812 -0.660156 7.59375 -0.328125 C 7.050781 0.00390625 6.429688 0.171875 5.734375 0.171875 Z M 5.421875 -0.984375 C 7.140625 -0.984375 8 -2.09375 8 -4.3125 C 8 -5.457031 7.773438 -6.296875 7.328125 -6.828125 C 6.878906 -7.367188 6.242188 -7.640625 5.421875 -7.640625 C 4.617188 -7.640625 3.976562 -7.363281 3.5 -6.8125 C 3.019531 -6.269531 2.78125 -5.4375 2.78125 -4.3125 C 2.78125 -3.1875 3.019531 -2.347656 3.5 -1.796875 C 3.976562 -1.253906 4.617188 -0.984375 5.421875 -0.984375 Z M 5.421875 -0.984375 "/></g></g></g></svg>